<mxfile host="app.diagrams.net" agent="Mozilla/5.0 (Windows NT 10.0; Win64; x64) AppleWebKit/537.36 (KHTML, like Gecko) Chrome/128.0.0.0 Safari/537.36" version="24.7.14">
  <diagram name="Page-1" id="g1qjNTv1j96C1XWt6Z7S">
    <mxGraphModel dx="1042" dy="522" grid="1" gridSize="10" guides="1" tooltips="1" connect="1" arrows="1" fold="1" page="1" pageScale="1" pageWidth="850" pageHeight="1100" math="0" shadow="0">
      <root>
        <mxCell id="0" />
        <mxCell id="1" parent="0" />
        <mxCell id="6pPsPb7keeCCMsC-JyOA-1" value="" style="swimlane;startSize=0;" vertex="1" parent="1">
          <mxGeometry x="560" y="160" width="200" height="200" as="geometry" />
        </mxCell>
        <mxCell id="6pPsPb7keeCCMsC-JyOA-2" value="Steadfast Couriers" style="text;html=1;align=center;verticalAlign=middle;resizable=0;points=[];autosize=1;strokeColor=none;fillColor=none;" vertex="1" parent="1">
          <mxGeometry x="600" y="120" width="120" height="30" as="geometry" />
        </mxCell>
        <mxCell id="6pPsPb7keeCCMsC-JyOA-3" value="" style="swimlane;startSize=0;" vertex="1" parent="1">
          <mxGeometry x="260" y="160" width="200" height="200" as="geometry" />
        </mxCell>
        <mxCell id="6pPsPb7keeCCMsC-JyOA-4" value="Order Tracker Web Application" style="text;html=1;align=center;verticalAlign=middle;resizable=0;points=[];autosize=1;strokeColor=none;fillColor=none;" vertex="1" parent="1">
          <mxGeometry x="265" y="120" width="190" height="30" as="geometry" />
        </mxCell>
        <mxCell id="6pPsPb7keeCCMsC-JyOA-5" value="" style="endArrow=classic;startArrow=classic;html=1;rounded=0;entryX=0;entryY=0.5;entryDx=0;entryDy=0;exitX=1;exitY=0.5;exitDx=0;exitDy=0;" edge="1" parent="1" source="6pPsPb7keeCCMsC-JyOA-3" target="6pPsPb7keeCCMsC-JyOA-1">
          <mxGeometry width="50" height="50" relative="1" as="geometry">
            <mxPoint x="400" y="300" as="sourcePoint" />
            <mxPoint x="450" y="250" as="targetPoint" />
          </mxGeometry>
        </mxCell>
        <mxCell id="6pPsPb7keeCCMsC-JyOA-6" value="API" style="text;html=1;align=center;verticalAlign=middle;resizable=0;points=[];autosize=1;strokeColor=none;fillColor=none;" vertex="1" parent="1">
          <mxGeometry x="490" y="230" width="40" height="30" as="geometry" />
        </mxCell>
        <mxCell id="6pPsPb7keeCCMsC-JyOA-7" value="DB" style="shape=cylinder3;whiteSpace=wrap;html=1;boundedLbl=1;backgroundOutline=1;size=15;" vertex="1" parent="1">
          <mxGeometry x="450" y="540" width="60" height="80" as="geometry" />
        </mxCell>
        <mxCell id="6pPsPb7keeCCMsC-JyOA-8" value="Excel Sheet" style="shape=document;whiteSpace=wrap;html=1;boundedLbl=1;" vertex="1" parent="1">
          <mxGeometry x="580" y="540" width="120" height="80" as="geometry" />
        </mxCell>
        <mxCell id="6pPsPb7keeCCMsC-JyOA-14" style="edgeStyle=orthogonalEdgeStyle;rounded=0;orthogonalLoop=1;jettySize=auto;html=1;exitX=1;exitY=0.3333333333333333;exitDx=0;exitDy=0;exitPerimeter=0;entryX=0;entryY=0.5;entryDx=0;entryDy=0;" edge="1" parent="1" source="6pPsPb7keeCCMsC-JyOA-9" target="6pPsPb7keeCCMsC-JyOA-3">
          <mxGeometry relative="1" as="geometry" />
        </mxCell>
        <mxCell id="6pPsPb7keeCCMsC-JyOA-9" value="User" style="shape=umlActor;verticalLabelPosition=bottom;verticalAlign=top;html=1;outlineConnect=0;" vertex="1" parent="1">
          <mxGeometry x="130" y="240" width="30" height="60" as="geometry" />
        </mxCell>
      </root>
    </mxGraphModel>
  </diagram>
</mxfile>
